<svg width="46" height="46" viewBox="0 0 46 46" fill="none" xmlns="http://www.w3.org/2000/svg">
<path d="M45.6067 21.9758L31.8075 6.64332C31.5131 6.31827 31.1022 6.13428 30.6667 6.13428H21.4672C20.8631 6.13428 20.3142 6.48999 20.0658 7.04196C19.8205 7.597 19.9217 8.24403 20.3265 8.69174L33.2027 23L20.3265 37.3053C19.9217 37.756 19.8174 38.4031 20.0658 38.955C20.3142 39.5101 20.8631 39.8658 21.4672 39.8658H30.6667C31.1022 39.8658 31.5131 39.6787 31.8075 39.3598L45.6067 24.0273C46.1311 23.4447 46.1311 22.5554 45.6067 21.9758Z" fill="#F2F2F2"/>
<path d="M25.6745 21.9758L11.8752 6.64332C11.5808 6.31827 11.1699 6.13428 10.7345 6.13428H1.53497C0.930874 6.13428 0.38197 6.48999 0.133584 7.04196C-0.111736 7.597 -0.0105418 8.24403 0.394236 8.69174L13.2705 23L0.394236 37.3053C-0.0105418 37.756 -0.114803 38.4031 0.133584 38.955C0.38197 39.5101 0.930874 39.8658 1.53497 39.8658H10.7345C11.1699 39.8658 11.5808 39.6787 11.8752 39.3598L25.6745 24.0273C26.1988 23.4447 26.1988 22.5554 25.6745 21.9758Z" fill="#F2F2F2"/>
</svg>
