<svg width="1787" height="394" viewBox="0 0 1787 394" fill="none" xmlns="http://www.w3.org/2000/svg">
<g opacity="0.24">
<mask id="path-1-outside-1_1_207" maskUnits="userSpaceOnUse" x="-0.967239" y="-0.773926" width="1892" height="404" fill="black">
<rect fill="white" x="-0.967239" y="-0.773926" width="1892" height="404"/>
<path d="M271.776 325.884H112.204L85.7996 402.226H1.4216L145.496 1.00004H239.058L383.132 402.226H298.18L271.776 325.884ZM249.964 261.596L191.99 93.9881L134.016 261.596H249.964ZM643.624 402.226L555.228 246.098H517.344V402.226H436.984V1.57407H587.372C618.368 1.57407 644.772 7.12273 666.584 18.2201C688.396 28.9347 704.66 43.6674 715.374 62.4181C726.472 80.7861 732.02 101.45 732.02 124.41C732.02 150.814 724.367 174.731 709.06 196.16C693.754 217.207 670.985 231.748 640.754 239.784L736.612 402.226H643.624ZM517.344 185.828H584.502C606.314 185.828 622.578 180.662 633.292 170.33C644.007 159.615 649.364 144.883 649.364 126.132C649.364 107.764 644.007 93.6054 633.292 83.6561C622.578 73.3241 606.314 68.1581 584.502 68.1581H517.344V185.828ZM885.063 66.4361V166.886H1019.95V230.6H885.063V336.79H1037.17V402.226H804.703V1.00004H1037.17V66.4361H885.063ZM1452.88 402.226H1372.52L1190.56 127.28V402.226H1110.2V1.00004H1190.56L1372.52 276.52V1.00004H1452.88V402.226ZM1777.97 325.884H1618.39L1591.99 402.226H1507.61L1651.69 1.00004H1745.25L1889.32 402.226H1804.37L1777.97 325.884ZM1756.15 261.596L1698.18 93.9881L1640.21 261.596H1756.15Z"/>
</mask>
<path d="M271.776 325.884L272.721 325.557L272.488 324.884H271.776V325.884ZM112.204 325.884V324.884H111.491L111.259 325.557L112.204 325.884ZM85.7996 402.226V403.226H86.5119L86.7447 402.553L85.7996 402.226ZM1.42161 402.226L0.480443 401.888L3.8147e-06 403.226H1.42161V402.226ZM145.496 1.00005V4.57764e-05H144.792L144.554 0.662079L145.496 1.00005ZM239.058 1.00005L239.999 0.662079L239.761 4.57764e-05H239.058V1.00005ZM383.132 402.226V403.226H384.553L384.073 401.888L383.132 402.226ZM298.18 402.226L297.235 402.553L297.467 403.226H298.18V402.226ZM249.964 261.596V262.596H251.368L250.909 261.269L249.964 261.596ZM191.99 93.9881L192.935 93.6612L191.99 90.9289L191.045 93.6612L191.99 93.9881ZM134.016 261.596L133.071 261.269L132.612 262.596H134.016V261.596ZM271.776 325.884V324.884H112.204V325.884V326.884H271.776V325.884ZM112.204 325.884L111.259 325.557L84.8545 401.899L85.7996 402.226L86.7447 402.553L113.149 326.211L112.204 325.884ZM85.7996 402.226V401.226H1.42161V402.226V403.226H85.7996V402.226ZM1.42161 402.226L2.36277 402.564L146.437 1.338L145.496 1.00005L144.554 0.662079L0.480443 401.888L1.42161 402.226ZM145.496 1.00005V2.00005H239.058V1.00005V4.57764e-05H145.496V1.00005ZM239.058 1.00005L238.116 1.338L382.19 402.564L383.132 402.226L384.073 401.888L239.999 0.662079L239.058 1.00005ZM383.132 402.226V401.226H298.18V402.226V403.226H383.132V402.226ZM298.18 402.226L299.125 401.899L272.721 325.557L271.776 325.884L270.831 326.211L297.235 402.553L298.18 402.226ZM249.964 261.596L250.909 261.269L192.935 93.6612L191.99 93.9881L191.045 94.315L249.019 261.923L249.964 261.596ZM191.99 93.9881L191.045 93.6612L133.071 261.269L134.016 261.596L134.961 261.923L192.935 94.315L191.99 93.9881ZM134.016 261.596V262.596H249.964V261.596V260.596H134.016V261.596ZM643.624 402.226L642.754 402.719L643.041 403.226H643.624V402.226ZM555.228 246.098L556.099 245.605L555.811 245.098H555.228V246.098ZM517.344 246.098V245.098H516.344V246.098H517.344ZM517.344 402.226V403.226H518.344V402.226H517.344ZM436.984 402.226H435.984V403.226H436.984V402.226ZM436.984 1.57407V0.574066H435.984V1.57407H436.984ZM666.584 18.2201L666.131 19.1114L666.144 19.1176L666.584 18.2201ZM715.374 62.4181L714.506 62.9142L714.512 62.9248L714.519 62.9352L715.374 62.4181ZM709.06 196.16L709.869 196.748L709.874 196.741L709.06 196.16ZM640.755 239.784L640.498 238.818L639.223 239.156L639.893 240.292L640.755 239.784ZM736.612 402.226V403.226H738.364L737.474 401.718L736.612 402.226ZM517.344 185.828H516.344V186.828H517.344V185.828ZM633.292 170.33L633.987 171.05L633.993 171.044L634 171.037L633.292 170.33ZM633.292 83.6561L632.598 84.3759L632.605 84.3824L632.612 84.3889L633.292 83.6561ZM517.344 68.1581V67.1581H516.344V68.1581H517.344ZM643.624 402.226L644.495 401.733L556.099 245.605L555.228 246.098L554.358 246.591L642.754 402.719L643.624 402.226ZM555.228 246.098V245.098H517.344V246.098V247.098H555.228V246.098ZM517.344 246.098H516.344V402.226H517.344H518.344V246.098H517.344ZM517.344 402.226V401.226H436.984V402.226V403.226H517.344V402.226ZM436.984 402.226H437.984V1.57407H436.984H435.984V402.226H436.984ZM436.984 1.57407V2.57407H587.372V1.57407V0.574066H436.984V1.57407ZM587.372 1.57407V2.57407C618.252 2.57407 644.492 8.10197 666.131 19.1113L666.584 18.2201L667.038 17.3288C645.053 6.14349 618.485 0.574066 587.372 0.574066V1.57407ZM666.584 18.2201L666.144 19.1176C687.799 29.7556 703.903 44.3583 714.506 62.9142L715.374 62.4181L716.243 61.9219C705.417 42.9765 688.993 28.1138 667.025 17.3225L666.584 18.2201ZM715.374 62.4181L714.519 62.9352C725.515 81.1362 731.02 101.619 731.02 124.41H732.02H733.02C733.02 101.281 727.429 80.4359 716.23 61.9009L715.374 62.4181ZM732.02 124.41H731.02C731.02 150.606 723.432 174.32 708.247 195.579L709.06 196.16L709.874 196.741C725.302 175.142 733.02 151.022 733.02 124.41H732.02ZM709.06 196.16L708.252 195.572C693.106 216.397 670.553 230.828 640.498 238.818L640.755 239.784L641.011 240.75C671.417 232.668 694.402 218.016 709.869 196.748L709.06 196.16ZM640.755 239.784L639.893 240.292L735.751 402.734L736.612 402.226L737.474 401.718L641.616 239.276L640.755 239.784ZM736.612 402.226V401.226H643.624V402.226V403.226H736.612V402.226ZM517.344 185.828V186.828H584.502V185.828V184.828H517.344V185.828ZM584.502 185.828V186.828C606.454 186.828 623.014 181.63 633.987 171.05L633.292 170.33L632.598 169.61C622.141 179.694 606.175 184.828 584.502 184.828V185.828ZM633.292 170.33L634 171.037C644.944 160.093 650.364 145.081 650.364 126.132H649.364H648.364C648.364 144.684 643.07 159.138 632.585 169.623L633.292 170.33ZM649.364 126.132H650.364C650.364 107.562 644.941 93.108 633.973 82.9233L633.292 83.6561L632.612 84.3889C643.073 94.1028 648.364 107.966 648.364 126.132H649.364ZM633.292 83.6561L633.987 82.9362C623.014 72.3558 606.454 67.1581 584.502 67.1581V68.1581V69.1581C606.175 69.1581 622.141 74.2923 632.598 84.3759L633.292 83.6561ZM584.502 68.1581V67.1581H517.344V68.1581V69.1581H584.502V68.1581ZM517.344 68.1581H516.344V185.828H517.344H518.344V68.1581H517.344ZM885.063 66.4361V65.4361H884.063V66.4361H885.063ZM885.063 166.886H884.063V167.886H885.063V166.886ZM1019.95 166.886H1020.95V165.886H1019.95V166.886ZM1019.95 230.6V231.6H1020.95V230.6H1019.95ZM885.063 230.6V229.6H884.063V230.6H885.063ZM885.063 336.79H884.063V337.79H885.063V336.79ZM1037.17 336.79H1038.17V335.79H1037.17V336.79ZM1037.17 402.226V403.226H1038.17V402.226H1037.17ZM804.703 402.226H803.703V403.226H804.703V402.226ZM804.703 1.00005V4.57764e-05H803.703V1.00005H804.703ZM1037.17 1.00005H1038.17V4.57764e-05H1037.17V1.00005ZM1037.17 66.4361V67.4361H1038.17V66.4361H1037.17ZM885.063 66.4361H884.063V166.886H885.063H886.063V66.4361H885.063ZM885.063 166.886V167.886H1019.95V166.886V165.886H885.063V166.886ZM1019.95 166.886H1018.95V230.6H1019.95H1020.95V166.886H1019.95ZM1019.95 230.6V229.6H885.063V230.6V231.6H1019.95V230.6ZM885.063 230.6H884.063V336.79H885.063H886.063V230.6H885.063ZM885.063 336.79V337.79H1037.17V336.79V335.79H885.063V336.79ZM1037.17 336.79H1036.17V402.226H1037.17H1038.17V336.79H1037.17ZM1037.17 402.226V401.226H804.703V402.226V403.226H1037.17V402.226ZM804.703 402.226H805.703V1.00005H804.703H803.703V402.226H804.703ZM804.703 1.00005V2.00005H1037.17V1.00005V4.57764e-05H804.703V1.00005ZM1037.17 1.00005H1036.17V66.4361H1037.17H1038.17V1.00005H1037.17ZM1037.17 66.4361V65.4361H885.063V66.4361V67.4361H1037.17V66.4361ZM1452.88 402.226V403.226H1453.88V402.226H1452.88ZM1372.52 402.226L1371.69 402.778L1371.98 403.226H1372.52V402.226ZM1190.56 127.28L1191.4 126.728L1189.56 123.957V127.28H1190.56ZM1190.56 402.226V403.226H1191.56V402.226H1190.56ZM1110.2 402.226H1109.2V403.226H1110.2V402.226ZM1110.2 1.00005V4.57764e-05H1109.2V1.00005H1110.2ZM1190.56 1.00005L1191.4 0.448959L1191.1 4.57764e-05H1190.56V1.00005ZM1372.52 276.52L1371.68 277.071L1373.52 279.849V276.52H1372.52ZM1372.52 1.00005V4.57764e-05H1371.52V1.00005H1372.52ZM1452.88 1.00005H1453.88V4.57764e-05H1452.88V1.00005ZM1452.88 402.226V401.226H1372.52V402.226V403.226H1452.88V402.226ZM1372.52 402.226L1373.35 401.674L1191.4 126.728L1190.56 127.28L1189.73 127.832L1371.69 402.778L1372.52 402.226ZM1190.56 127.28H1189.56V402.226H1190.56H1191.56V127.28H1190.56ZM1190.56 402.226V401.226H1110.2V402.226V403.226H1190.56V402.226ZM1110.2 402.226H1111.2V1.00005H1110.2H1109.2V402.226H1110.2ZM1110.2 1.00005V2.00005H1190.56V1.00005V4.57764e-05H1110.2V1.00005ZM1190.56 1.00005L1189.73 1.55112L1371.68 277.071L1372.52 276.52L1373.35 275.969L1191.4 0.448959L1190.56 1.00005ZM1372.52 276.52H1373.52V1.00005H1372.52H1371.52V276.52H1372.52ZM1372.52 1.00005V2.00005H1452.88V1.00005V4.57764e-05H1372.52V1.00005ZM1452.88 1.00005H1451.88V402.226H1452.88H1453.88V1.00005H1452.88ZM1777.97 325.884L1778.91 325.557L1778.68 324.884H1777.97V325.884ZM1618.39 325.884V324.884H1617.68L1617.45 325.557L1618.39 325.884ZM1591.99 402.226V403.226H1592.7L1592.93 402.553L1591.99 402.226ZM1507.61 402.226L1506.67 401.888L1506.19 403.226H1507.61V402.226ZM1651.69 1.00005V4.57764e-05H1650.98L1650.74 0.662079L1651.69 1.00005ZM1745.25 1.00005L1746.19 0.662079L1745.95 4.57764e-05H1745.25V1.00005ZM1889.32 402.226V403.226H1890.74L1890.26 401.888L1889.32 402.226ZM1804.37 402.226L1803.42 402.553L1803.66 403.226H1804.37V402.226ZM1756.15 261.596V262.596H1757.56L1757.1 261.269L1756.15 261.596ZM1698.18 93.9881L1699.12 93.6612L1698.18 90.9289L1697.23 93.6612L1698.18 93.9881ZM1640.21 261.596L1639.26 261.269L1638.8 262.596H1640.21V261.596ZM1777.97 325.884V324.884H1618.39V325.884V326.884H1777.97V325.884ZM1618.39 325.884L1617.45 325.557L1591.04 401.899L1591.99 402.226L1592.93 402.553L1619.34 326.211L1618.39 325.884ZM1591.99 402.226V401.226H1507.61V402.226V403.226H1591.99V402.226ZM1507.61 402.226L1508.55 402.564L1652.63 1.338L1651.69 1.00005L1650.74 0.662079L1506.67 401.888L1507.61 402.226ZM1651.69 1.00005V2.00005H1745.25V1.00005V4.57764e-05H1651.69V1.00005ZM1745.25 1.00005L1744.31 1.338L1888.38 402.564L1889.32 402.226L1890.26 401.888L1746.19 0.662079L1745.25 1.00005ZM1889.32 402.226V401.226H1804.37V402.226V403.226H1889.32V402.226ZM1804.37 402.226L1805.31 401.899L1778.91 325.557L1777.97 325.884L1777.02 326.211L1803.42 402.553L1804.37 402.226ZM1756.15 261.596L1757.1 261.269L1699.12 93.6612L1698.18 93.9881L1697.23 94.315L1755.21 261.923L1756.15 261.596ZM1698.18 93.9881L1697.23 93.6612L1639.26 261.269L1640.21 261.596L1641.15 261.923L1699.12 94.315L1698.18 93.9881ZM1640.21 261.596V262.596H1756.15V261.596V260.596H1640.21V261.596Z" fill="url(#paint0_linear_1_207)" fill-opacity="0.7" mask="url(#path-1-outside-1_1_207)"/>
</g>
<defs>
<linearGradient id="paint0_linear_1_207" x1="1004.06" y1="-228.774" x2="1004.06" y2="619.926" gradientUnits="userSpaceOnUse">
<stop stop-color="#52B4F5"/>
<stop offset="0.749376" stop-color="#0D1117"/>
</linearGradient>
</defs>
</svg>
