<svg width="196" height="60" viewBox="0 0 196 60" fill="none" xmlns="http://www.w3.org/2000/svg">
<path d="M58.6335 19.0145H17.3738V59.9315L0.000732422 41.0438V1.64142H41.2605L58.6335 19.0145Z" fill="#D9D9D9"/>
<path d="M0.000610352 41.043L41.0436 41.043L41.0436 0L58.6334 18.9326L58.6334 60L17.3737 60L0.000610352 41.043Z" fill="#52B4F5"/>
<path d="M39.0889 1.9541V39.3936L1.9541 39.1035V1.9541H39.0889Z" fill="#F2F2F2" stroke="#F2F2F2" stroke-width="3.90889"/>
<path d="M41.0434 17.7855H17.59V41.1705" stroke="#8E5FEC" stroke-width="4.88612"/>
<path d="M19.5444 19.8651H41.0434V41.364L19.5444 41.2266V19.8651Z" fill="#151621"/>
<path d="M75.0935 44.5L84.7876 16.356H88.5987L98.2928 44.5H95.3025L86.097 17.9586H87.2306L78.0838 44.5H75.0935ZM79.4128 37.679V34.9818H93.9539V37.679H79.4128ZM101.236 44.5V16.356H112.102C112.376 16.356 112.682 16.369 113.021 16.395C113.373 16.4081 113.725 16.4472 114.076 16.5123C115.549 16.7338 116.793 17.2485 117.809 18.0563C118.839 18.8511 119.614 19.8544 120.135 21.0662C120.669 22.2779 120.937 23.62 120.937 25.0923C120.937 27.2162 120.376 29.0599 119.256 30.6234C118.135 32.187 116.533 33.1707 114.448 33.5746L113.451 33.8092H104.109V44.5H101.236ZM118.279 44.5L112.728 33.0469L115.484 31.9915L121.582 44.5H118.279ZM104.109 31.0729H112.024C112.259 31.0729 112.532 31.0599 112.845 31.0339C113.158 31.0078 113.464 30.9622 113.764 30.897C114.728 30.6886 115.516 30.2912 116.129 29.7048C116.754 29.1185 117.217 28.4214 117.516 27.6136C117.829 26.8057 117.985 25.9653 117.985 25.0923C117.985 24.2194 117.829 23.3789 117.516 22.5711C117.217 21.7502 116.754 21.0466 116.129 20.4603C115.516 19.874 114.728 19.4766 113.764 19.2681C113.464 19.2029 113.158 19.1638 112.845 19.1508C112.532 19.1248 112.259 19.1117 112.024 19.1117H104.109V31.0729ZM125.309 44.5V16.356H142.899V19.1117H128.182V28.8449H140.554V31.6006H128.182V41.7442H142.899V44.5H125.309ZM147.016 44.5V16.356H149.908L165.407 39.4184V16.356H168.3V44.5H165.407L149.908 21.418V44.5H147.016ZM171.234 44.5L180.928 16.356H184.739L194.433 44.5H191.443L182.238 17.9586H183.371L174.224 44.5H171.234ZM175.553 37.679V34.9818H190.094V37.679H175.553Z" fill="#F0F6FC"/>
</svg>
